<?xml version="1.0" encoding="UTF-8"?>
<svg xmlns="http://www.w3.org/2000/svg" xmlns:xlink="http://www.w3.org/1999/xlink" width="200pt" height="137pt" viewBox="0 0 200 137" version="1.1">
<g id="surface1">
<path style=" stroke:none;fill-rule:nonzero;fill:rgb(7.058824%,47.843137%,98.431373%);fill-opacity:1;" d="M 64.140625 21.152344 C 65.089844 20.714844 66.328125 21.367188 66.476562 22.40625 C 66.859375 24.628906 67.21875 26.859375 67.589844 29.085938 C 68.980469 27.558594 70.960938 26.605469 73.027344 26.503906 C 76.371094 26.253906 79.566406 28.453125 81 31.40625 C 81.722656 32.832031 81.875 34.4375 82.144531 35.988281 C 82.425781 37.703125 82.71875 39.410156 82.996094 41.125 C 83.183594 42.015625 82.53125 42.988281 81.625 43.125 C 80.746094 43.316406 79.789062 42.679688 79.632812 41.792969 C 79.195312 39.3125 78.816406 36.824219 78.378906 34.34375 C 78.023438 32.371094 76.523438 30.625 74.585938 30.0625 C 73.113281 29.667969 71.441406 30.085938 70.351562 31.160156 C 69.335938 32.160156 68.722656 33.558594 68.6875 34.984375 C 68.660156 35.765625 68.835938 36.535156 68.957031 37.304688 C 69.285156 39.300781 69.625 41.296875 69.949219 43.292969 C 70.152344 44.207031 69.472656 45.1875 68.546875 45.304688 C 67.613281 45.488281 66.65625 44.730469 66.570312 43.792969 C 65.421875 36.882812 64.269531 29.972656 63.125 23.0625 C 62.949219 22.289062 63.417969 21.453125 64.140625 21.152344 Z M 64.140625 21.152344 "/>
<path style=" stroke:none;fill-rule:nonzero;fill:rgb(7.058824%,47.843137%,98.431373%);fill-opacity:1;" d="M 179.539062 22.78125 C 181.207031 22.09375 183.300781 23.300781 183.480469 25.109375 C 184.894531 37.238281 186.289062 49.367188 187.695312 61.496094 C 187.9375 63.011719 186.800781 64.585938 185.277344 64.792969 C 183.660156 65.125 181.976562 63.808594 181.851562 62.175781 C 180.453125 50.070312 179.046875 37.960938 177.652344 25.855469 C 177.476562 24.558594 178.332031 23.238281 179.539062 22.78125 Z M 179.539062 22.78125 "/>
<path style=" stroke:none;fill-rule:nonzero;fill:rgb(7.058824%,47.843137%,98.431373%);fill-opacity:1;" d="M 50.152344 23.535156 C 50.601562 22.804688 51.652344 22.558594 52.390625 22.992188 C 52.835938 23.238281 53.164062 23.691406 53.238281 24.195312 C 53.550781 26.011719 53.84375 27.832031 54.152344 29.648438 C 55.96875 29.347656 57.78125 29.035156 59.601562 28.746094 C 60.5 28.566406 61.445312 29.265625 61.550781 30.175781 C 61.71875 31.078125 61.007812 32.015625 60.101562 32.125 C 58.304688 32.429688 56.507812 32.722656 54.710938 33.027344 C 55.039062 34.941406 55.332031 36.859375 55.675781 38.765625 C 56.207031 41.457031 59.039062 43.441406 61.75 42.988281 C 62.527344 42.789062 63.402344 43.164062 63.757812 43.894531 C 64.222656 44.769531 63.738281 45.960938 62.804688 46.277344 C 58.261719 47.40625 53.25 44.125 52.347656 39.550781 C 51.507812 34.757812 50.75 29.953125 49.933594 25.15625 C 49.8125 24.613281 49.800781 24 50.152344 23.535156 Z M 50.152344 23.535156 "/>
<path style=" stroke:none;fill-rule:nonzero;fill:rgb(7.058824%,47.843137%,98.431373%);fill-opacity:1;" d="M 89.613281 24.070312 C 91.621094 23.136719 93.980469 22.925781 96.097656 23.597656 C 98.222656 24.246094 100.113281 25.695312 101.199219 27.644531 C 101.664062 28.398438 101.410156 29.507812 100.640625 29.953125 C 97.753906 31.71875 94.863281 33.472656 91.976562 35.230469 C 91.265625 35.707031 90.171875 35.636719 89.675781 34.890625 C 89.03125 34.148438 89.226562 32.863281 90.082031 32.371094 C 92.441406 30.921875 94.8125 29.496094 97.171875 28.046875 C 96.378906 27.367188 95.429688 26.828125 94.382812 26.683594 C 92.75 26.445312 90.988281 26.917969 89.78125 28.066406 C 88.796875 29.015625 88.089844 30.300781 88 31.679688 C 87.902344 33.128906 88.347656 34.636719 89.324219 35.730469 C 90.234375 36.738281 91.5 37.464844 92.863281 37.601562 C 94.65625 37.777344 96.578125 37.109375 97.703125 35.660156 C 98.21875 35.042969 98.484375 34.085938 99.378906 33.90625 C 100.621094 33.515625 101.945312 34.882812 101.449219 36.113281 C 100.554688 38.039062 98.921875 39.632812 96.933594 40.402344 C 94.8125 41.222656 92.367188 41.339844 90.238281 40.464844 C 88.070312 39.566406 86.183594 37.859375 85.28125 35.664062 C 84.390625 33.488281 84.28125 30.949219 85.207031 28.765625 C 86.066406 26.75 87.621094 25.003906 89.613281 24.070312 Z M 89.613281 24.070312 "/>
<path style=" stroke:none;fill-rule:nonzero;fill:rgb(7.058824%,47.843137%,98.431373%);fill-opacity:1;" d="M 128.21875 28.636719 C 129.078125 28.429688 130.039062 28.339844 130.847656 28.769531 C 131.753906 29.210938 132.398438 30.140625 132.464844 31.148438 C 132.597656 32.253906 131.972656 33.351562 131.046875 33.929688 C 129.609375 34.753906 127.515625 34.535156 126.574219 33.066406 C 125.484375 31.511719 126.375 29.09375 128.21875 28.636719 Z M 128.21875 28.636719 "/>
<path style=" stroke:none;fill-rule:nonzero;fill:rgb(7.058824%,47.843137%,98.431373%);fill-opacity:1;" d="M 154.894531 37.277344 C 157.632812 36.90625 160.480469 37.230469 163.011719 38.363281 C 165.511719 39.480469 167.726562 41.242188 169.375 43.433594 C 170.960938 45.546875 171.902344 48.109375 172.199219 50.730469 C 172.679688 54.875 173.160156 59.015625 173.636719 63.160156 C 173.855469 64.714844 172.617188 66.320312 171.039062 66.441406 C 169.527344 66.660156 167.996094 65.476562 167.816406 63.960938 C 167.292969 59.664062 166.832031 55.355469 166.304688 51.058594 C 165.703125 46.410156 161.132812 42.699219 156.46875 43.042969 C 153.820312 43.148438 151.238281 44.402344 149.597656 46.5 C 147.828125 48.554688 147.042969 51.394531 147.523438 54.066406 C 147.875 56.648438 149.433594 58.980469 151.582031 60.425781 C 153.953125 62.121094 157.128906 62.5 159.871094 61.566406 C 161.066406 61.21875 162.132812 60.429688 163.410156 60.367188 C 165.0625 60.351562 166.40625 62.046875 166.164062 63.652344 C 166.074219 64.511719 165.578125 65.300781 164.859375 65.769531 C 162.460938 67.410156 159.484375 67.964844 156.625 67.984375 C 151.472656 68.007812 146.566406 65.023438 143.8125 60.730469 C 142.128906 58.070312 141.40625 54.863281 141.519531 51.734375 C 141.695312 46.382812 145.050781 41.355469 149.738281 38.867188 C 151.34375 38.027344 153.105469 37.507812 154.894531 37.277344 Z M 154.894531 37.277344 "/>
<path style=" stroke:none;fill-rule:nonzero;fill:rgb(7.058824%,47.843137%,98.431373%);fill-opacity:1;" d="M 46.273438 38.105469 C 47.183594 37.953125 48.195312 37.910156 48.976562 38.484375 C 50.367188 39.335938 50.714844 41.398438 49.75 42.6875 C 49.273438 43.363281 48.496094 43.789062 47.675781 43.871094 C 43.53125 44.359375 39.386719 44.828125 35.238281 45.316406 C 34.101562 45.445312 33.011719 46.015625 32.316406 46.933594 C 31.28125 48.292969 30.8125 50.058594 31.03125 51.75 C 31.191406 53.128906 31.53125 54.597656 32.542969 55.605469 C 33.179688 56.25 34.097656 56.472656 34.964844 56.585938 C 38.144531 57 41.347656 56.496094 44.539062 56.691406 C 46.703125 56.820312 48.945312 57.074219 50.867188 58.152344 C 53.210938 59.410156 54.769531 61.785156 55.453125 64.3125 C 56.242188 67.25 56.460938 70.46875 55.359375 73.355469 C 54.15625 76.542969 51.445312 79.046875 48.261719 80.183594 C 46.089844 81.019531 43.75 81.140625 41.46875 81.425781 C 38.183594 81.804688 34.902344 82.191406 31.617188 82.566406 C 30.046875 82.785156 28.433594 81.515625 28.339844 79.917969 C 28.144531 78.398438 29.347656 76.890625 30.863281 76.730469 C 35.207031 76.210938 39.554688 75.726562 43.894531 75.210938 C 45.75 74.980469 47.664062 74.300781 48.894531 72.824219 C 50.039062 71.507812 50.371094 69.667969 50.171875 67.972656 C 50.003906 66.515625 49.675781 64.960938 48.644531 63.851562 C 47.980469 63.125 46.988281 62.855469 46.042969 62.722656 C 42.847656 62.28125 39.625 62.804688 36.421875 62.613281 C 34.230469 62.492188 31.957031 62.226562 30.035156 61.089844 C 28.0625 59.972656 26.644531 58.035156 25.925781 55.902344 C 24.921875 52.917969 24.707031 49.5625 25.84375 46.582031 C 26.628906 44.535156 27.921875 42.644531 29.691406 41.332031 C 31.113281 40.273438 32.835938 39.664062 34.585938 39.460938 C 38.480469 39.003906 42.378906 38.558594 46.273438 38.105469 Z M 46.273438 38.105469 "/>
<path style=" stroke:none;fill-rule:nonzero;fill:rgb(7.058824%,47.843137%,98.431373%);fill-opacity:1;" d="M 129.707031 40.210938 C 131.378906 39.5625 133.429688 40.785156 133.582031 42.589844 C 134.546875 50.828125 135.488281 59.066406 136.445312 67.304688 C 136.578125 68.171875 136.324219 69.09375 135.726562 69.746094 C 134.988281 70.605469 133.71875 70.929688 132.644531 70.585938 C 131.554688 70.214844 130.691406 69.195312 130.605469 68.027344 C 129.65625 59.824219 128.710938 51.621094 127.761719 43.417969 C 127.535156 42.066406 128.398438 40.625 129.707031 40.210938 Z M 129.707031 40.210938 "/>
<path style=" stroke:none;fill-rule:nonzero;fill:rgb(7.058824%,47.843137%,98.431373%);fill-opacity:1;" d="M 109.199219 42.570312 C 113.363281 41.980469 117.761719 43.222656 120.9375 46 C 121.90625 47 122 48.734375 121.109375 49.8125 C 120.335938 50.894531 118.765625 51.261719 117.574219 50.714844 C 116.929688 50.382812 116.40625 49.871094 115.769531 49.53125 C 113.777344 48.363281 111.351562 48.066406 109.109375 48.558594 C 104.75 49.402344 101.367188 53.734375 101.621094 58.179688 C 101.703125 60.519531 102.632812 62.839844 104.3125 64.488281 C 105.96875 66.164062 108.226562 67.285156 110.601562 67.359375 C 113.292969 67.488281 116.066406 66.511719 117.917969 64.519531 C 118.4375 63.988281 118.84375 63.296875 119.554688 62.988281 C 120.660156 62.453125 122.066406 62.710938 122.925781 63.582031 C 123.933594 64.539062 124.085938 66.253906 123.257812 67.371094 C 121.429688 69.765625 118.878906 71.625 115.996094 72.523438 C 113.316406 73.355469 110.417969 73.542969 107.675781 72.925781 C 104.695312 72.257812 102.003906 70.585938 99.890625 68.40625 C 96.097656 64.53125 94.828125 58.523438 96.359375 53.371094 C 97.871094 48.539062 101.8125 44.433594 106.726562 43.074219 C 107.535156 42.84375 108.363281 42.675781 109.199219 42.570312 Z M 109.199219 42.570312 "/>
<path style=" stroke:none;fill-rule:nonzero;fill:rgb(7.058824%,47.843137%,98.431373%);fill-opacity:1;" d="M 73.75 46.703125 C 76.667969 46.292969 79.71875 46.6875 82.375 47.988281 C 85.144531 49.34375 87.5625 51.472656 89.140625 54.132812 C 91.777344 58.6875 91.996094 64.664062 89.390625 69.285156 C 88 71.757812 86.007812 73.925781 83.546875 75.363281 C 78.714844 78.140625 72.304688 78.140625 67.625 75.019531 C 65.125 73.402344 63.007812 71.132812 61.789062 68.402344 C 60.605469 65.742188 60.195312 62.75 60.539062 59.863281 C 61.011719 55.992188 63.164062 52.4375 66.132812 49.960938 C 68.285156 48.160156 70.976562 47.054688 73.75 46.703125 M 73.746094 52.679688 C 70.558594 53.304688 67.945312 55.8125 66.828125 58.816406 C 66.023438 61.058594 66.171875 63.59375 67.085938 65.777344 C 68.003906 67.921875 69.789062 69.640625 71.878906 70.640625 C 74.152344 71.71875 76.851562 71.71875 79.203125 70.875 C 81.519531 70.042969 83.382812 68.183594 84.457031 65.992188 C 85.617188 63.621094 85.601562 60.761719 84.636719 58.328125 C 83.789062 56.199219 82.066406 54.511719 80.066406 53.445312 C 78.144531 52.421875 75.859375 52.214844 73.746094 52.679688 Z M 73.746094 52.679688 "/>
<path style=" stroke:none;fill-rule:nonzero;fill:rgb(7.058824%,47.843137%,98.431373%);fill-opacity:1;" d="M 140.417969 69.585938 C 140.195312 68.375 141.175781 67.117188 142.398438 67.039062 C 143.539062 66.890625 144.691406 67.800781 144.796875 68.953125 C 145.144531 71.855469 145.480469 74.761719 145.820312 77.664062 C 147.773438 75.691406 150.535156 74.585938 153.308594 74.652344 C 155.910156 74.648438 158.40625 75.804688 160.277344 77.574219 C 162.304688 79.40625 163.582031 81.992188 163.917969 84.691406 C 164.300781 87.90625 164.683594 91.117188 165.046875 94.332031 C 165.175781 95.484375 164.238281 96.644531 163.074219 96.730469 C 161.9375 96.882812 160.777344 95.992188 160.640625 94.851562 C 160.238281 91.609375 159.890625 88.363281 159.484375 85.121094 C 159.171875 82.796875 157.65625 80.6875 155.558594 79.644531 C 153.71875 78.738281 151.398438 78.953125 149.734375 80.140625 C 148.285156 81.203125 147.289062 82.859375 146.96875 84.625 C 146.699219 85.972656 146.964844 87.332031 147.109375 88.675781 C 147.40625 91.226562 147.71875 93.78125 148.003906 96.332031 C 148.148438 97.5 147.195312 98.65625 146.019531 98.734375 C 144.816406 98.890625 143.652344 97.867188 143.589844 96.667969 C 142.53125 87.640625 141.476562 78.613281 140.417969 69.585938 Z M 140.417969 69.585938 "/>
<path style=" stroke:none;fill-rule:nonzero;fill:rgb(7.058824%,47.843137%,98.431373%);fill-opacity:1;" d="M 123.109375 70.929688 C 122.917969 69.765625 123.816406 68.546875 124.992188 68.417969 C 126.148438 68.214844 127.351562 69.113281 127.480469 70.28125 C 127.777344 72.671875 128.042969 75.070312 128.328125 77.464844 C 130.695312 77.1875 133.058594 76.90625 135.425781 76.632812 C 136.089844 76.539062 136.78125 76.785156 137.25 77.261719 C 137.976562 77.957031 138.125 79.1875 137.546875 80.019531 C 137.191406 80.570312 136.601562 80.96875 135.941406 81.03125 C 133.578125 81.316406 131.210938 81.585938 128.847656 81.863281 C 129.109375 84.144531 129.382812 86.425781 129.644531 88.707031 C 129.710938 89.296875 129.816406 89.890625 130.011719 90.460938 C 131.011719 93.472656 134.226562 95.617188 137.402344 95.226562 C 138.5625 94.984375 139.816406 95.796875 140.035156 96.96875 C 140.308594 98.140625 139.445312 99.429688 138.257812 99.609375 C 135.914062 99.941406 133.460938 99.535156 131.382812 98.390625 C 129.441406 97.320312 127.746094 95.753906 126.652344 93.8125 C 125.878906 92.445312 125.4375 90.90625 125.265625 89.347656 C 124.546875 83.207031 123.824219 77.070312 123.109375 70.929688 Z M 123.109375 70.929688 "/>
<path style=" stroke:none;fill-rule:nonzero;fill:rgb(7.058824%,47.843137%,98.431373%);fill-opacity:1;" d="M 114.664062 79.847656 C 115.183594 79.027344 116.273438 78.660156 117.1875 78.96875 C 118.003906 79.246094 118.644531 80.011719 118.710938 80.882812 C 119 83.324219 119.28125 85.761719 119.570312 88.203125 C 119.734375 89.683594 119.984375 91.171875 119.871094 92.667969 C 119.699219 95.605469 118.378906 98.464844 116.234375 100.484375 C 114.558594 102.078125 112.226562 102.898438 109.929688 102.855469 C 107.21875 102.875 104.699219 101.429688 102.953125 99.425781 C 101.882812 101.421875 100.230469 103.191406 98.085938 104.019531 C 95.699219 104.953125 92.90625 104.914062 90.621094 103.71875 C 87.292969 101.992188 85.003906 98.550781 84.5 94.855469 C 84.085938 91.589844 83.726562 88.320312 83.335938 85.054688 C 83.136719 83.871094 84.054688 82.632812 85.253906 82.519531 C 86.523438 82.308594 87.738281 83.414062 87.753906 84.6875 C 88.046875 87.246094 88.351562 89.804688 88.652344 92.363281 C 88.78125 93.429688 88.851562 94.519531 89.195312 95.546875 C 89.730469 97.222656 90.859375 98.722656 92.375 99.625 C 93.976562 100.582031 96.15625 100.398438 97.574219 99.191406 C 99.359375 97.636719 100.175781 95.152344 99.945312 92.828125 C 99.585938 89.5625 99.167969 86.304688 98.8125 83.042969 C 98.695312 81.878906 99.664062 80.753906 100.824219 80.691406 C 101.960938 80.554688 103.082031 81.457031 103.207031 82.59375 C 103.523438 85.195312 103.816406 87.796875 104.125 90.398438 C 104.269531 91.5625 104.335938 92.75 104.734375 93.867188 C 105.277344 95.464844 106.367188 96.894531 107.8125 97.78125 C 109.328125 98.710938 111.390625 98.617188 112.820312 97.558594 C 114.828125 96.015625 115.707031 93.316406 115.417969 90.847656 C 115.070312 87.804688 114.710938 84.757812 114.347656 81.714844 C 114.246094 81.078125 114.277344 80.382812 114.664062 79.847656 Z M 114.664062 79.847656 "/>
<path style=" stroke:none;fill-rule:nonzero;fill:rgb(7.058824%,47.843137%,98.431373%);fill-opacity:1;" d="M 67.136719 84.667969 C 69.429688 84.296875 71.847656 84.582031 73.933594 85.625 C 76.453125 86.878906 78.59375 88.996094 79.648438 91.628906 C 80.460938 93.671875 80.71875 95.933594 80.367188 98.105469 C 79.945312 100.667969 78.539062 103.003906 76.644531 104.757812 C 73.007812 108.140625 67.046875 108.675781 62.882812 105.960938 C 60.769531 104.621094 59.007812 102.652344 58.140625 100.28125 C 57.328125 98.0625 57.132812 95.59375 57.691406 93.289062 C 58.785156 88.902344 62.609375 85.257812 67.136719 84.667969 M 67.292969 89.144531 C 65.054688 89.621094 63.21875 91.332031 62.324219 93.402344 C 61.636719 95.019531 61.660156 96.886719 62.226562 98.539062 C 62.832031 100.277344 64.195312 101.691406 65.820312 102.519531 C 67.566406 103.414062 69.683594 103.429688 71.511719 102.769531 C 73.257812 102.132812 74.65625 100.714844 75.453125 99.050781 C 76.269531 97.34375 76.273438 95.308594 75.628906 93.546875 C 75.011719 91.839844 73.644531 90.484375 72.054688 89.660156 C 70.597656 88.910156 68.875 88.78125 67.292969 89.144531 Z M 67.292969 89.144531 "/>
<path style=" stroke:none;fill-rule:nonzero;fill:rgb(7.058824%,47.843137%,98.431373%);fill-opacity:1;" d="M 43.835938 89.589844 C 45.898438 87.5 48.894531 86.378906 51.824219 86.632812 C 52.515625 86.675781 53.140625 87.105469 53.496094 87.691406 C 54.0625 88.589844 53.832031 89.878906 53.011719 90.546875 C 52.550781 90.957031 51.921875 91.105469 51.320312 91.046875 C 49.746094 90.949219 48.144531 91.554688 47.03125 92.675781 C 45.46875 94.210938 44.652344 96.460938 44.878906 98.648438 C 45.234375 101.847656 45.632812 105.042969 45.992188 108.242188 C 46.15625 109.363281 45.28125 110.492188 44.171875 110.648438 C 42.988281 110.894531 41.726562 109.964844 41.605469 108.761719 C 40.871094 102.574219 40.152344 96.378906 39.425781 90.1875 C 39.304688 89.472656 39.589844 88.734375 40.117188 88.246094 C 40.890625 87.472656 42.253906 87.453125 43.0625 88.183594 C 43.503906 88.527344 43.710938 89.0625 43.835938 89.589844 Z M 43.835938 89.589844 "/>
<path style=" stroke:none;fill-rule:nonzero;fill:rgb(7.058824%,47.843137%,98.431373%);fill-opacity:1;" d="M 21.761719 89.980469 C 24.019531 89.609375 26.398438 89.871094 28.46875 90.871094 C 30.640625 91.917969 32.535156 93.597656 33.726562 95.710938 C 34.492188 97.066406 34.933594 98.585938 35.109375 100.128906 C 35.417969 102.777344 35.726562 105.425781 36.039062 108.070312 C 36.144531 109.011719 36.289062 109.953125 36.273438 110.90625 C 36.285156 115.984375 32.46875 120.808594 27.519531 121.9375 C 24.578125 122.660156 21.335938 122.269531 18.757812 120.640625 C 17.992188 120.132812 17.03125 119.644531 16.8125 118.667969 C 16.457031 117.46875 17.308594 116.09375 18.546875 115.910156 C 19.234375 115.742188 19.9375 115.992188 20.464844 116.445312 C 22.066406 117.6875 24.214844 118.121094 26.183594 117.695312 C 29.609375 117.054688 32.21875 113.546875 31.8125 110.074219 C 31.4375 106.820312 31.058594 103.5625 30.664062 100.308594 C 30.207031 96.589844 26.367188 93.707031 22.671875 94.328125 C 18.980469 94.707031 16.03125 98.421875 16.511719 102.109375 C 16.742188 105.292969 19.425781 108.046875 22.5625 108.476562 C 24.132812 108.679688 25.78125 108.398438 27.160156 107.597656 C 27.761719 107.199219 28.535156 107.050781 29.222656 107.316406 C 30.375 107.675781 31 109.078125 30.542969 110.1875 C 30.277344 111.027344 29.445312 111.453125 28.710938 111.8125 C 25.761719 113.253906 22.175781 113.417969 19.148438 112.113281 C 17.257812 111.285156 15.574219 109.96875 14.316406 108.332031 C 12.578125 106.066406 11.859375 103.121094 12.082031 100.296875 C 12.488281 95.207031 16.683594 90.660156 21.761719 89.980469 Z M 21.761719 89.980469 "/>
<path style=" stroke:none;fill-rule:nonzero;fill:rgb(7.058824%,47.843137%,98.431373%);fill-opacity:1;" d="M 168.824219 100.925781 C 170.085938 100.265625 171.667969 100.195312 172.953125 100.839844 C 174.554688 101.636719 175.722656 103.222656 176.066406 104.976562 C 176.332031 106.503906 176.492188 108.046875 176.726562 109.582031 C 176.785156 110.058594 176.929688 110.609375 176.597656 111.023438 C 176.042969 111.875 174.578125 111.433594 174.570312 110.421875 C 174.34375 108.824219 174.144531 107.222656 173.90625 105.628906 C 173.726562 104.507812 173.054688 103.449219 172.046875 102.90625 C 171.199219 102.445312 170.070312 102.609375 169.390625 103.292969 C 168.628906 104.058594 168.265625 105.179688 168.359375 106.253906 C 168.546875 107.921875 168.816406 109.582031 169.023438 111.25 C 169.140625 111.863281 168.65625 112.507812 168.03125 112.542969 C 167.4375 112.625 166.859375 112.152344 166.804688 111.5625 C 166.574219 109.972656 166.375 108.378906 166.140625 106.789062 C 165.976562 105.621094 165.289062 104.503906 164.234375 103.953125 C 163.402344 103.523438 162.320312 103.683594 161.648438 104.328125 C 160.78125 105.148438 160.441406 106.417969 160.601562 107.582031 C 160.800781 109.105469 161.019531 110.621094 161.226562 112.144531 C 161.28125 112.496094 161.273438 112.886719 161.035156 113.175781 C 160.664062 113.703125 159.816406 113.773438 159.371094 113.308594 C 159.054688 113.046875 159.019531 112.621094 158.96875 112.246094 C 158.570312 109.253906 158.136719 106.269531 157.75 103.277344 C 157.632812 102.597656 158.277344 101.945312 158.957031 102.03125 C 159.441406 102.046875 159.769531 102.441406 159.976562 102.835938 C 161.152344 101.597656 163.042969 101.140625 164.652344 101.683594 C 165.476562 101.949219 166.175781 102.488281 166.777344 103.101562 C 167.25 102.214844 167.921875 101.398438 168.824219 100.925781 Z M 168.824219 100.925781 "/>
<path style=" stroke:none;fill-rule:nonzero;fill:rgb(7.058824%,47.843137%,98.431373%);fill-opacity:1;" d="M 149.246094 103.410156 C 151.78125 102.859375 154.515625 104.304688 155.597656 106.632812 C 156.316406 108.210938 156.367188 110.121094 155.578125 111.683594 C 154.921875 112.996094 153.800781 114.105469 152.410156 114.613281 C 150.972656 115.136719 149.316406 115.144531 147.925781 114.480469 C 146.585938 113.851562 145.445312 112.742188 144.90625 111.351562 C 144.304688 109.800781 144.316406 107.980469 145.113281 106.5 C 145.929688 104.910156 147.472656 103.695312 149.246094 103.410156 M 149.242188 105.722656 C 147.644531 106.199219 146.515625 107.921875 146.761719 109.582031 C 146.898438 111.015625 148.019531 112.246094 149.394531 112.617188 C 150.734375 112.96875 152.277344 112.5 153.117188 111.378906 C 153.941406 110.386719 154.125 108.949219 153.632812 107.765625 C 152.960938 106.105469 150.953125 105.132812 149.242188 105.722656 Z M 149.242188 105.722656 "/>
<path style=" stroke:none;fill-rule:nonzero;fill:rgb(7.058824%,47.843137%,98.431373%);fill-opacity:1;" d="M 137.160156 105.0625 C 138.5625 104.726562 140.097656 104.886719 141.355469 105.617188 C 141.804688 105.890625 142.382812 106.179688 142.457031 106.769531 C 142.59375 107.414062 142.042969 108.085938 141.386719 108.082031 C 140.984375 108.121094 140.667969 107.835938 140.34375 107.648438 C 139.386719 107.035156 138.125 107.007812 137.09375 107.449219 C 136.171875 107.847656 135.464844 108.671875 135.128906 109.609375 C 134.628906 111.066406 135.195312 112.820312 136.488281 113.671875 C 137.945312 114.757812 140.226562 114.4375 141.324219 112.980469 C 141.792969 112.203125 143.09375 112.386719 143.339844 113.257812 C 143.570312 113.890625 143.101562 114.445312 142.683594 114.855469 C 141.398438 116.222656 139.40625 116.792969 137.574219 116.511719 C 136.3125 116.3125 135.15625 115.640625 134.273438 114.726562 C 132.503906 112.90625 132.179688 109.847656 133.550781 107.703125 C 134.347656 106.394531 135.652344 105.390625 137.160156 105.0625 Z M 137.160156 105.0625 "/>
<path style=" stroke:none;fill-rule:nonzero;fill:rgb(7.058824%,47.843137%,98.431373%);fill-opacity:1;" d="M 123.746094 110.039062 C 126.082031 109.429688 128.636719 111.171875 128.976562 113.550781 C 129.4375 115.828125 127.75 118.246094 125.453125 118.59375 C 123.175781 119.054688 120.78125 117.34375 120.441406 115.050781 C 120 112.84375 121.546875 110.492188 123.746094 110.039062 Z M 123.746094 110.039062 "/>
</g>
</svg>
