<?xml version="1.0" encoding="UTF-8"?>
<svg xmlns="http://www.w3.org/2000/svg" xmlns:xlink="http://www.w3.org/1999/xlink" width="200pt" height="137pt" viewBox="0 0 200 137" version="1.1">
<g id="surface1">
<path style=" stroke:none;fill-rule:nonzero;fill:rgb(100%,100%,100%);fill-opacity:1;" d="M 63.835938 21.316406 C 64.742188 20.644531 66.21875 21.171875 66.449219 22.289062 C 66.855469 24.546875 67.207031 26.8125 67.585938 29.074219 C 68.984375 27.566406 70.949219 26.605469 73.011719 26.503906 C 76.375 26.246094 79.589844 28.464844 81.019531 31.441406 C 81.71875 32.839844 81.875 34.410156 82.132812 35.929688 C 82.421875 37.660156 82.714844 39.386719 82.996094 41.117188 C 83.1875 42.019531 82.523438 43 81.605469 43.128906 C 80.722656 43.308594 79.769531 42.660156 79.628906 41.765625 C 79.273438 39.726562 78.945312 37.679688 78.601562 35.640625 C 78.4375 34.550781 78.265625 33.425781 77.667969 32.476562 C 77.066406 31.488281 76.152344 30.6875 75.09375 30.238281 C 73.515625 29.582031 71.570312 29.960938 70.355469 31.15625 C 69.101562 32.375 68.488281 34.203125 68.738281 35.933594 C 69.128906 38.402344 69.558594 40.859375 69.957031 43.328125 C 70.128906 44.179688 69.535156 45.09375 68.691406 45.277344 C 67.769531 45.542969 66.734375 44.855469 66.59375 43.914062 C 65.433594 37.007812 64.296875 30.097656 63.140625 23.191406 C 62.957031 22.496094 63.25 21.726562 63.835938 21.316406 Z M 63.835938 21.316406 "/>
<path style=" stroke:none;fill-rule:nonzero;fill:rgb(100%,100%,100%);fill-opacity:1;" d="M 180.039062 22.648438 C 181.65625 22.289062 183.394531 23.574219 183.5 25.238281 C 184.796875 36.417969 186.085938 47.597656 187.378906 58.777344 C 187.484375 59.796875 187.640625 60.816406 187.714844 61.835938 C 187.792969 63.371094 186.46875 64.800781 184.933594 64.832031 C 183.410156 64.949219 181.960938 63.671875 181.847656 62.15625 C 180.449219 50.058594 179.046875 37.964844 177.652344 25.867188 C 177.449219 24.394531 178.574219 22.878906 180.039062 22.648438 Z M 180.039062 22.648438 "/>
<path style=" stroke:none;fill-rule:nonzero;fill:rgb(100%,100%,100%);fill-opacity:1;" d="M 49.878906 24.792969 C 49.691406 23.878906 50.394531 22.890625 51.328125 22.796875 C 52.171875 22.652344 53.0625 23.265625 53.21875 24.109375 C 53.550781 25.949219 53.832031 27.804688 54.152344 29.648438 C 55.976562 29.347656 57.800781 29.03125 59.625 28.742188 C 60.527344 28.578125 61.457031 29.285156 61.554688 30.195312 C 61.707031 31.097656 60.996094 32.023438 60.09375 32.128906 C 58.300781 32.433594 56.503906 32.722656 54.710938 33.03125 C 55.035156 34.933594 55.332031 36.84375 55.671875 38.742188 C 56.195312 41.476562 59.085938 43.472656 61.828125 42.976562 C 62.722656 42.761719 63.714844 43.375 63.894531 44.285156 C 64.09375 45.097656 63.589844 46.007812 62.800781 46.277344 C 58.761719 47.273438 54.3125 44.800781 52.785156 40.976562 C 52.496094 40.269531 52.316406 39.519531 52.195312 38.765625 C 51.425781 34.109375 50.644531 29.449219 49.878906 24.792969 Z M 49.878906 24.792969 "/>
<path style=" stroke:none;fill-rule:nonzero;fill:rgb(100%,100%,100%);fill-opacity:1;" d="M 87.109375 25.882812 C 88.554688 24.335938 90.605469 23.429688 92.699219 23.242188 C 96.097656 22.902344 99.632812 24.722656 101.25 27.746094 C 101.652344 28.496094 101.371094 29.535156 100.628906 29.960938 C 97.75 31.71875 94.863281 33.472656 91.984375 35.226562 C 91.273438 35.710938 90.167969 35.636719 89.667969 34.886719 C 89.03125 34.140625 89.230469 32.851562 90.089844 32.363281 C 92.445312 30.917969 94.816406 29.496094 97.167969 28.046875 C 95.9375 26.917969 94.199219 26.375 92.550781 26.710938 C 90.25 27.046875 88.375 29.054688 88.035156 31.332031 C 87.824219 32.925781 88.292969 34.632812 89.402344 35.8125 C 90.308594 36.785156 91.550781 37.476562 92.886719 37.601562 C 94.671875 37.769531 96.582031 37.101562 97.703125 35.660156 C 98.191406 35.105469 98.402344 34.25 99.164062 33.980469 C 100.089844 33.558594 101.292969 34.179688 101.5 35.179688 C 101.71875 36.042969 101.101562 36.789062 100.660156 37.464844 C 99.308594 39.421875 97.085938 40.671875 94.746094 40.972656 C 92.296875 41.375 89.734375 40.613281 87.835938 39.03125 C 85.84375 37.480469 84.679688 35.007812 84.574219 32.5 C 84.40625 30.054688 85.421875 27.628906 87.109375 25.882812 Z M 87.109375 25.882812 "/>
<path style=" stroke:none;fill-rule:nonzero;fill:rgb(100%,100%,100%);fill-opacity:1;" d="M 128.527344 28.566406 C 129.226562 28.441406 129.972656 28.386719 130.640625 28.671875 C 131.652344 29.074219 132.402344 30.070312 132.46875 31.164062 C 132.59375 32.300781 131.929688 33.421875 130.957031 33.980469 C 130.40625 34.296875 129.753906 34.371094 129.132812 34.402344 C 127.683594 34.464844 126.265625 33.296875 126.128906 31.835938 C 125.886719 30.332031 127.027344 28.789062 128.527344 28.566406 Z M 128.527344 28.566406 "/>
<path style=" stroke:none;fill-rule:nonzero;fill:rgb(100%,100%,100%);fill-opacity:1;" d="M 155.039062 37.257812 C 157.726562 36.917969 160.523438 37.25 163.007812 38.359375 C 165.507812 39.480469 167.726562 41.242188 169.375 43.433594 C 170.957031 45.539062 171.894531 48.089844 172.195312 50.695312 C 172.675781 54.851562 173.160156 59.003906 173.636719 63.160156 C 173.792969 64.289062 173.1875 65.4375 172.242188 66.039062 C 171.214844 66.667969 169.800781 66.59375 168.871094 65.8125 C 168.257812 65.328125 167.871094 64.585938 167.792969 63.8125 C 167.3125 59.6875 166.839844 55.5625 166.359375 51.433594 C 166.238281 50.445312 165.988281 49.46875 165.574219 48.5625 C 164.683594 46.59375 163.042969 45.039062 161.15625 44.03125 C 158.75 42.753906 155.792969 42.742188 153.285156 43.734375 C 151.121094 44.59375 149.402344 46.359375 148.34375 48.40625 C 147.164062 50.699219 147.125 53.472656 147.980469 55.878906 C 148.835938 58.273438 150.769531 60.199219 153.050781 61.265625 C 155.40625 62.351562 158.191406 62.292969 160.574219 61.316406 C 161.542969 60.929688 162.488281 60.347656 163.566406 60.371094 C 165.148438 60.460938 166.382812 62.085938 166.167969 63.632812 C 166.082031 64.453125 165.636719 65.226562 164.957031 65.695312 C 162.925781 67.148438 160.414062 67.746094 157.960938 67.941406 C 155.140625 68.164062 152.246094 67.59375 149.761719 66.222656 C 147.234375 64.835938 145.023438 62.816406 143.5625 60.320312 C 142.054688 57.738281 141.410156 54.703125 141.519531 51.730469 C 141.699219 46.382812 145.050781 41.359375 149.734375 38.871094 C 151.378906 38.007812 153.195312 37.484375 155.039062 37.257812 Z M 155.039062 37.257812 "/>
<path style=" stroke:none;fill-rule:nonzero;fill:rgb(100%,100%,100%);fill-opacity:1;" d="M 46.433594 38.085938 C 47.335938 37.921875 48.332031 37.96875 49.078125 38.554688 C 50.390625 39.433594 50.6875 41.429688 49.753906 42.683594 C 49.277344 43.363281 48.488281 43.789062 47.667969 43.871094 C 43.507812 44.359375 39.339844 44.832031 35.175781 45.324219 C 33.679688 45.484375 32.367188 46.5 31.734375 47.855469 C 30.835938 49.488281 30.828125 51.453125 31.292969 53.21875 C 31.601562 54.507812 32.34375 55.855469 33.671875 56.296875 C 35.199219 56.761719 36.824219 56.742188 38.410156 56.75 C 41.816406 56.671875 45.289062 56.410156 48.625 57.261719 C 50.941406 57.835938 53.015625 59.347656 54.222656 61.414062 C 55.402344 63.382812 55.898438 65.683594 56.074219 67.953125 C 56.25 70.226562 55.882812 72.578125 54.792969 74.597656 C 53.601562 76.847656 51.640625 78.664062 49.335938 79.734375 C 47.722656 80.492188 45.96875 80.910156 44.199219 81.109375 C 40 81.59375 35.800781 82.085938 31.597656 82.566406 C 30.027344 82.777344 28.421875 81.496094 28.335938 79.898438 C 28.160156 78.410156 29.320312 76.925781 30.804688 76.738281 C 35.207031 76.207031 39.609375 75.722656 44.011719 75.195312 C 45.824219 74.949219 47.691406 74.269531 48.890625 72.824219 C 50 71.550781 50.355469 69.78125 50.1875 68.136719 C 50.035156 66.660156 49.726562 65.09375 48.726562 63.941406 C 48.140625 63.25 47.253906 62.917969 46.382812 62.777344 C 43.304688 62.269531 40.183594 62.75 37.085938 62.640625 C 34.996094 62.558594 32.851562 62.394531 30.917969 61.542969 C 28.609375 60.550781 26.855469 58.511719 26.019531 56.164062 C 24.988281 53.273438 24.707031 50.027344 25.667969 47.078125 C 26.679688 44.03125 28.882812 41.238281 31.953125 40.097656 C 33.429688 39.503906 35.035156 39.417969 36.597656 39.226562 C 39.878906 38.84375 43.15625 38.46875 46.433594 38.085938 Z M 46.433594 38.085938 "/>
<path style=" stroke:none;fill-rule:nonzero;fill:rgb(100%,100%,100%);fill-opacity:1;" d="M 129.707031 40.210938 C 130.578125 39.921875 131.585938 40.019531 132.347656 40.550781 C 133.078125 41.035156 133.53125 41.875 133.605469 42.746094 C 134.550781 50.929688 135.496094 59.117188 136.445312 67.304688 C 136.578125 68.175781 136.320312 69.097656 135.726562 69.75 C 134.875 70.738281 133.316406 71.019531 132.179688 70.382812 C 131.058594 69.816406 130.53125 68.566406 130.527344 67.359375 C 129.605469 59.324219 128.664062 51.292969 127.746094 43.257812 C 127.589844 41.953125 128.457031 40.609375 129.707031 40.210938 Z M 129.707031 40.210938 "/>
<path style=" stroke:none;fill-rule:nonzero;fill:rgb(100%,100%,100%);fill-opacity:1;" d="M 109.183594 42.574219 C 113.355469 41.976562 117.761719 43.21875 120.941406 46.003906 C 121.9375 47.035156 121.996094 48.832031 121.035156 49.90625 C 120.355469 50.785156 119.136719 51.128906 118.074219 50.890625 C 117.257812 50.707031 116.679688 50.050781 115.972656 49.652344 C 113.902344 48.363281 111.324219 48.039062 108.96875 48.585938 C 104.558594 49.515625 101.207031 54.015625 101.640625 58.523438 C 101.792969 61.023438 102.980469 63.4375 104.910156 65.039062 C 106.804688 66.722656 109.394531 67.59375 111.921875 67.328125 C 114.414062 67.152344 116.8125 65.945312 118.386719 63.992188 C 118.847656 63.378906 119.496094 62.878906 120.273438 62.761719 C 121.742188 62.453125 123.367188 63.457031 123.695312 64.9375 C 123.933594 65.84375 123.71875 66.847656 123.113281 67.566406 C 121.285156 69.859375 118.804688 71.652344 115.992188 72.523438 C 113 73.457031 109.71875 73.582031 106.707031 72.667969 C 103.996094 71.847656 101.570312 70.214844 99.652344 68.148438 C 95.949219 64.171875 94.800781 58.117188 96.476562 52.988281 C 97.433594 50.175781 99.230469 47.667969 101.519531 45.785156 C 103.691406 43.996094 106.398438 42.910156 109.183594 42.574219 Z M 109.183594 42.574219 "/>
<path style=" stroke:none;fill-rule:nonzero;fill:rgb(100%,100%,100%);fill-opacity:1;" d="M 73.746094 46.703125 C 76.664062 46.292969 79.71875 46.683594 82.375 47.988281 C 85.144531 49.34375 87.566406 51.472656 89.140625 54.136719 C 91.777344 58.691406 91.992188 64.667969 89.390625 69.285156 C 87.921875 71.902344 85.773438 74.179688 83.121094 75.605469 C 78.445312 78.070312 72.441406 78.0625 67.933594 75.210938 C 65.304688 73.589844 63.066406 71.257812 61.796875 68.421875 C 60.609375 65.765625 60.195312 62.777344 60.535156 59.894531 C 61 56.011719 63.152344 52.449219 66.125 49.964844 C 68.277344 48.164062 70.96875 47.058594 73.746094 46.703125 M 73.746094 52.679688 C 70.4375 53.335938 67.734375 56.011719 66.707031 59.179688 C 65.871094 61.945312 66.351562 65.117188 68.046875 67.472656 C 69.128906 68.949219 70.617188 70.128906 72.304688 70.828125 C 74.457031 71.703125 76.917969 71.664062 79.097656 70.914062 C 81.460938 70.101562 83.367188 68.21875 84.457031 65.992188 C 85.613281 63.621094 85.601562 60.761719 84.636719 58.328125 C 83.789062 56.199219 82.066406 54.511719 80.070312 53.445312 C 78.144531 52.421875 75.859375 52.210938 73.746094 52.679688 Z M 73.746094 52.679688 "/>
<path style=" stroke:none;fill-rule:nonzero;fill:rgb(100%,100%,100%);fill-opacity:1;" d="M 140.414062 69.558594 C 140.207031 68.351562 141.191406 67.109375 142.414062 67.035156 C 143.5625 66.898438 144.710938 67.824219 144.800781 68.984375 C 145.148438 71.875 145.476562 74.769531 145.824219 77.660156 C 147.421875 76.082031 149.515625 75.003906 151.75 74.742188 C 154.324219 74.371094 157.011719 75.050781 159.097656 76.605469 C 161.65625 78.410156 163.433594 81.273438 163.871094 84.382812 C 164.285156 87.640625 164.640625 90.902344 165.03125 94.160156 C 165.25 95.363281 164.308594 96.636719 163.082031 96.730469 C 161.925781 96.886719 160.753906 95.972656 160.632812 94.8125 C 160.308594 92.121094 160 89.429688 159.683594 86.738281 C 159.566406 85.796875 159.503906 84.839844 159.207031 83.933594 C 158.667969 82.164062 157.390625 80.648438 155.78125 79.757812 C 153.945312 78.746094 151.558594 78.894531 149.835938 80.070312 C 148.367188 81.097656 147.355469 82.730469 146.996094 84.476562 C 146.785156 85.46875 146.835938 86.492188 146.96875 87.488281 C 147.316406 90.445312 147.675781 93.402344 148.003906 96.359375 C 148.125 97.457031 147.28125 98.550781 146.1875 98.710938 C 145.066406 98.945312 143.878906 98.125 143.648438 97.015625 C 142.535156 87.867188 141.5 78.710938 140.414062 69.558594 Z M 140.414062 69.558594 "/>
<path style=" stroke:none;fill-rule:nonzero;fill:rgb(100%,100%,100%);fill-opacity:1;" d="M 123.109375 70.949219 C 122.90625 69.78125 123.8125 68.546875 124.996094 68.417969 C 126.140625 68.21875 127.332031 69.097656 127.476562 70.25 C 127.777344 72.652344 128.042969 75.058594 128.332031 77.464844 C 130.699219 77.1875 133.066406 76.90625 135.433594 76.632812 C 136.378906 76.496094 137.355469 77.070312 137.722656 77.949219 C 138.347656 79.257812 137.335938 80.941406 135.902344 81.039062 C 133.550781 81.316406 131.199219 81.589844 128.847656 81.867188 C 129.148438 84.375 129.414062 86.882812 129.742188 89.386719 C 130.265625 92.867188 133.746094 95.601562 137.25 95.238281 C 137.96875 95.121094 138.757812 95.230469 139.308594 95.746094 C 140.285156 96.523438 140.332031 98.136719 139.425781 98.988281 C 138.796875 99.695312 137.785156 99.683594 136.917969 99.714844 C 131.824219 99.898438 126.890625 96.179688 125.617188 91.246094 C 125.449219 90.621094 125.339844 89.980469 125.265625 89.339844 C 124.546875 83.210938 123.828125 77.078125 123.109375 70.949219 Z M 123.109375 70.949219 "/>
<path style=" stroke:none;fill-rule:nonzero;fill:rgb(100%,100%,100%);fill-opacity:1;" d="M 114.304688 81.222656 C 114.1875 80.089844 115.101562 78.984375 116.230469 78.878906 C 117.605469 78.660156 118.808594 79.9375 118.761719 81.277344 C 119.109375 84.332031 119.480469 87.382812 119.828125 90.4375 C 120.269531 94.214844 118.859375 98.199219 115.980469 100.710938 C 113.828125 102.601562 110.734375 103.265625 107.96875 102.613281 C 105.996094 102.148438 104.292969 100.917969 102.953125 99.429688 C 101.859375 101.460938 100.167969 103.253906 97.96875 104.066406 C 95.648438 104.9375 92.957031 104.898438 90.726562 103.769531 C 87.359375 102.074219 85.03125 98.621094 84.507812 94.90625 C 84.085938 91.625 83.726562 88.332031 83.335938 85.046875 C 83.226562 84.339844 83.496094 83.609375 84.003906 83.117188 C 84.710938 82.394531 85.941406 82.296875 86.761719 82.875 C 87.316406 83.242188 87.671875 83.867188 87.730469 84.527344 C 88.109375 87.710938 88.46875 90.894531 88.859375 94.074219 C 89.148438 96.320312 90.417969 98.472656 92.386719 99.632812 C 93.816406 100.476562 95.699219 100.429688 97.09375 99.542969 C 98.183594 98.847656 98.921875 97.730469 99.417969 96.558594 C 100.003906 95.152344 100.078125 93.582031 99.867188 92.085938 C 99.519531 89.132812 99.171875 86.175781 98.824219 83.21875 C 98.726562 82.539062 98.953125 81.820312 99.441406 81.335938 C 100.136719 80.605469 101.359375 80.464844 102.203125 81.023438 C 102.777344 81.382812 103.15625 82.011719 103.21875 82.6875 C 103.5625 85.578125 103.898438 88.46875 104.234375 91.359375 C 104.378906 94.042969 105.765625 96.792969 108.242188 98.003906 C 109.878906 98.785156 111.96875 98.441406 113.273438 97.179688 C 114.582031 95.921875 115.339844 94.140625 115.449219 92.339844 C 115.527344 91.273438 115.335938 90.214844 115.226562 89.160156 C 114.921875 86.515625 114.59375 83.871094 114.304688 81.222656 Z M 114.304688 81.222656 "/>
<path style=" stroke:none;fill-rule:nonzero;fill:rgb(100%,100%,100%);fill-opacity:1;" d="M 67.28125 84.644531 C 69.488281 84.3125 71.804688 84.59375 73.820312 85.570312 C 76.515625 86.875 78.789062 89.167969 79.796875 92.019531 C 80.761719 94.734375 80.804688 97.828125 79.671875 100.503906 C 78.855469 102.402344 77.546875 104.09375 75.921875 105.367188 C 73.539062 107.230469 70.382812 107.949219 67.40625 107.601562 C 64.773438 107.289062 62.34375 105.921875 60.515625 104.03125 C 56.988281 100.433594 56.335938 94.375 59.035156 90.113281 C 60.796875 87.183594 63.871094 85.054688 67.28125 84.644531 M 67.445312 89.113281 C 65.109375 89.550781 63.175781 91.339844 62.28125 93.507812 C 61.640625 95.097656 61.675781 96.910156 62.222656 98.519531 C 62.835938 100.308594 64.253906 101.757812 65.9375 102.578125 C 67.625 103.398438 69.632812 103.414062 71.390625 102.8125 C 73.183594 102.199219 74.625 100.769531 75.441406 99.082031 C 76.269531 97.363281 76.277344 95.316406 75.628906 93.539062 C 75.007812 91.835938 73.640625 90.480469 72.046875 89.65625 C 70.640625 88.933594 68.984375 88.789062 67.445312 89.113281 Z M 67.445312 89.113281 "/>
<path style=" stroke:none;fill-rule:nonzero;fill:rgb(100%,100%,100%);fill-opacity:1;" d="M 43.839844 89.574219 C 45.953125 87.464844 49.011719 86.328125 51.984375 86.652344 C 52.695312 86.75 53.300781 87.261719 53.609375 87.898438 C 54.027344 88.78125 53.769531 89.933594 53.007812 90.546875 C 52.550781 90.953125 51.925781 91.105469 51.328125 91.046875 C 49.945312 90.960938 48.535156 91.40625 47.464844 92.289062 C 45.621094 93.808594 44.628906 96.273438 44.878906 98.652344 C 45.234375 101.855469 45.632812 105.050781 45.996094 108.253906 C 46.152344 109.378906 45.269531 110.503906 44.152344 110.652344 C 42.96875 110.886719 41.707031 109.941406 41.601562 108.738281 C 40.871094 102.554688 40.148438 96.371094 39.425781 90.1875 C 39.203125 88.933594 40.277344 87.644531 41.554688 87.652344 C 42.675781 87.582031 43.660156 88.492188 43.839844 89.574219 Z M 43.839844 89.574219 "/>
<path style=" stroke:none;fill-rule:nonzero;fill:rgb(100%,100%,100%);fill-opacity:1;" d="M 21.761719 89.980469 C 24.054688 89.601562 26.480469 89.882812 28.578125 90.921875 C 30.8125 92.03125 32.746094 93.804688 33.898438 96.03125 C 34.554688 97.296875 34.941406 98.6875 35.105469 100.101562 C 35.417969 102.761719 35.730469 105.425781 36.042969 108.089844 C 36.148438 109.023438 36.289062 109.960938 36.273438 110.90625 C 36.285156 116.011719 32.429688 120.855469 27.449219 121.957031 C 24.527344 122.65625 21.316406 122.257812 18.757812 120.644531 C 17.949219 120.113281 16.925781 119.570312 16.777344 118.507812 C 16.488281 117.222656 17.558594 115.875 18.875 115.867188 C 19.605469 115.773438 20.207031 116.242188 20.757812 116.652344 C 23.433594 118.539062 27.445312 118.160156 29.707031 115.785156 C 31.152344 114.347656 32.019531 112.296875 31.824219 110.238281 C 31.535156 107.53125 31.195312 104.828125 30.886719 102.121094 C 30.742188 101.007812 30.695312 99.867188 30.28125 98.8125 C 29.664062 97.15625 28.34375 95.835938 26.804688 95.011719 C 25.015625 94.058594 22.820312 94.042969 20.949219 94.765625 C 19.300781 95.402344 17.992188 96.738281 17.183594 98.292969 C 16.417969 99.78125 16.296875 101.550781 16.691406 103.167969 C 17.40625 106.214844 20.375 108.570312 23.507812 108.539062 C 24.816406 108.546875 26.132812 108.214844 27.261719 107.542969 C 28.582031 106.597656 30.660156 107.613281 30.683594 109.25 C 30.722656 110.035156 30.359375 110.855469 29.675781 111.277344 C 27.84375 112.429688 25.667969 113 23.507812 112.996094 C 18.425781 113.054688 13.574219 109.257812 12.410156 104.304688 C 11.695312 101.453125 12 98.308594 13.503906 95.753906 C 15.207031 92.71875 18.285156 90.453125 21.761719 89.980469 Z M 21.761719 89.980469 "/>
<path style=" stroke:none;fill-rule:nonzero;fill:rgb(100%,100%,100%);fill-opacity:1;" d="M 168.835938 100.921875 C 170.097656 100.261719 171.679688 100.195312 172.960938 100.84375 C 174.625 101.671875 175.800781 103.34375 176.109375 105.167969 C 176.347656 106.726562 176.535156 108.289062 176.761719 109.851562 C 176.859375 110.316406 176.835938 110.863281 176.445312 111.195312 C 175.878906 111.753906 174.792969 111.445312 174.621094 110.664062 C 174.371094 109.15625 174.199219 107.636719 173.980469 106.121094 C 173.882812 105.226562 173.597656 104.320312 172.976562 103.648438 C 172.394531 102.96875 171.488281 102.492188 170.574219 102.683594 C 169.480469 102.859375 168.761719 103.878906 168.480469 104.886719 C 168.183594 105.910156 168.460938 106.96875 168.582031 107.992188 C 168.722656 109.128906 168.914062 110.261719 169.03125 111.398438 C 169.082031 112.023438 168.5 112.59375 167.878906 112.550781 C 167.324219 112.550781 166.839844 112.078125 166.800781 111.527344 C 166.574219 109.957031 166.375 108.378906 166.144531 106.804688 C 165.984375 105.632812 165.296875 104.511719 164.238281 103.957031 C 163.371094 103.503906 162.230469 103.703125 161.5625 104.410156 C 160.730469 105.265625 160.433594 106.535156 160.617188 107.695312 C 160.820312 109.261719 161.0625 110.824219 161.25 112.394531 C 161.335938 112.984375 160.851562 113.574219 160.261719 113.613281 C 159.625 113.703125 159.03125 113.15625 159.011719 112.527344 C 158.589844 109.4375 158.152344 106.355469 157.746094 103.265625 C 157.640625 102.597656 158.269531 101.960938 158.9375 102.03125 C 159.429688 102.027344 159.738281 102.441406 159.996094 102.808594 C 161.15625 101.625 162.96875 101.160156 164.550781 101.648438 C 165.417969 101.902344 166.148438 102.464844 166.777344 103.097656 C 167.253906 102.210938 167.925781 101.390625 168.835938 100.921875 Z M 168.835938 100.921875 "/>
<path style=" stroke:none;fill-rule:nonzero;fill:rgb(100%,100%,100%);fill-opacity:1;" d="M 149.246094 103.410156 C 151.78125 102.859375 154.515625 104.304688 155.601562 106.636719 C 156.300781 108.175781 156.363281 110.035156 155.628906 111.574219 C 154.976562 112.945312 153.824219 114.105469 152.382812 114.625 C 150.949219 115.136719 149.304688 115.140625 147.917969 114.480469 C 146.550781 113.832031 145.386719 112.683594 144.863281 111.242188 C 144.46875 110.152344 144.367188 108.949219 144.621094 107.816406 C 145.136719 105.621094 147 103.769531 149.246094 103.410156 M 149.402344 105.679688 C 148.285156 105.945312 147.390625 106.824219 146.964844 107.871094 C 146.59375 108.804688 146.675781 109.898438 147.128906 110.796875 C 147.820312 112.140625 149.414062 112.96875 150.910156 112.679688 C 152.792969 112.425781 154.210938 110.449219 153.855469 108.582031 C 153.601562 106.554688 151.359375 105.089844 149.402344 105.679688 Z M 149.402344 105.679688 "/>
<path style=" stroke:none;fill-rule:nonzero;fill:rgb(100%,100%,100%);fill-opacity:1;" d="M 137.15625 105.0625 C 138.871094 104.636719 140.792969 105.011719 142.152344 106.167969 C 142.570312 106.5625 142.578125 107.304688 142.175781 107.71875 C 141.800781 108.15625 141.085938 108.199219 140.644531 107.835938 C 139.847656 107.25 138.8125 107.011719 137.84375 107.21875 C 136.550781 107.4375 135.492188 108.472656 135.097656 109.703125 C 134.683594 111.0625 135.152344 112.660156 136.292969 113.527344 C 137.644531 114.679688 139.875 114.558594 141.078125 113.253906 C 141.390625 112.910156 141.699219 112.457031 142.21875 112.480469 C 143.042969 112.410156 143.675781 113.382812 143.28125 114.109375 C 141.800781 116.410156 138.53125 117.226562 136.09375 116.046875 C 134.726562 115.386719 133.574219 114.226562 133.066406 112.78125 C 132.632812 111.554688 132.566406 110.175781 132.972656 108.933594 C 133.601562 107.054688 135.203125 105.488281 137.15625 105.0625 Z M 137.15625 105.0625 "/>
<path style=" stroke:none;fill-rule:nonzero;fill:rgb(100%,100%,100%);fill-opacity:1;" d="M 123.746094 110.039062 C 126.085938 109.425781 128.648438 111.175781 128.980469 113.5625 C 129.445312 115.890625 127.667969 118.34375 125.3125 118.617188 C 123.066406 118.992188 120.765625 117.28125 120.4375 115.03125 C 120.007812 112.832031 121.554688 110.492188 123.746094 110.039062 Z M 123.746094 110.039062 "/>
</g>
</svg>
